<svg xmlns="http://www.w3.org/2000/svg" width="1200" height="720" viewBox="0 0 1200 720" role="img" aria-labelledby="title desc">
  <title id="title">零基础入门 Spark｜结束语 | 进入时间裂缝，持续学习 主线理解图</title>
  <desc id="desc">围绕课程笔记主题生成的原创概念流程图，帮助理解章节主线、关键概念和实践闭环。</desc>
  <defs>
    <linearGradient id="header" x1="0" y1="0" x2="1" y2="0">
      <stop offset="0%" stop-color="#ea580c"/>
      <stop offset="100%" stop-color="#7c3aed"/>
    </linearGradient>
    <filter id="shadow" x="-20%" y="-20%" width="140%" height="140%">
      <feDropShadow dx="0" dy="10" stdDeviation="12" flood-color="#0f172a" flood-opacity="0.12"/>
    </filter>
  </defs>
  <rect width="1200" height="720" rx="0" fill="#fff7ed"/>
  <rect x="56" y="48" width="1088" height="624" rx="24" fill="#ffffff" filter="url(#shadow)"/>
  <rect x="56" y="48" width="1088" height="108" rx="24" fill="url(#header)"/>
  <rect x="56" y="114" width="1088" height="42" fill="url(#header)"/>
  <text x="92" y="92" font-size="24" font-weight="800" fill="#ffffff">Spark 学习笔记</text>
  <text x="92" y="132" text-anchor="start" font-size="26" font-weight="750" fill="#ffffff">零基础入门 Spark｜结束语  进入时间裂缝，持续学习</text>
  <text x="92" y="204" font-size="22" font-weight="700" fill="#0f172a">主线拆解</text>
  <text x="1060" y="204" text-anchor="end" font-size="16" fill="#64748b">spark-zero-to-one-37-结束语-进入时间裂缝-持续学习</text>
  <rect x="119" y="250" width="170" height="118" rx="14" fill="#ffffff" stroke="#ea580c" stroke-width="2"/>
<circle cx="147" cy="278" r="16" fill="#ffedd5" stroke="#ea580c" stroke-width="2"/>
<text x="147" y="285" text-anchor="middle" font-size="18" font-weight="700" fill="#ea580c">1</text>
<text x="204" y="312" text-anchor="middle" font-size="20" font-weight="650" fill="#0f172a">这一讲以正文案例</text>
<text x="204" y="337" text-anchor="middle" font-size="20" font-weight="650" fill="#0f172a">和推导为主，按...</text>
<path d="M 296 309 H 306" stroke="#7c3aed" stroke-width="3" stroke-linecap="round"/>
<path d="M 306 309 l -9 -7 v 14 z" fill="#7c3aed"/>
<rect x="317" y="250" width="170" height="118" rx="14" fill="#ffffff" stroke="#ea580c" stroke-width="2"/>
<circle cx="345" cy="278" r="16" fill="#ffedd5" stroke="#ea580c" stroke-width="2"/>
<text x="345" y="285" text-anchor="middle" font-size="18" font-weight="700" fill="#ea580c">2</text>
<text x="402" y="312" text-anchor="middle" font-size="20" font-weight="650" fill="#0f172a">观察入口：Spa</text>
<text x="402" y="337" text-anchor="middle" font-size="20" font-weight="650" fill="#0f172a">rk UI、执...</text>
<path d="M 494 309 H 504" stroke="#7c3aed" stroke-width="3" stroke-linecap="round"/>
<path d="M 504 309 l -9 -7 v 14 z" fill="#7c3aed"/>
<rect x="515" y="250" width="170" height="118" rx="14" fill="#ffffff" stroke="#ea580c" stroke-width="2"/>
<circle cx="543" cy="278" r="16" fill="#ffedd5" stroke="#ea580c" stroke-width="2"/>
<text x="543" y="285" text-anchor="middle" font-size="18" font-weight="700" fill="#ea580c">3</text>
<text x="600" y="312" text-anchor="middle" font-size="20" font-weight="650" fill="#0f172a">机制还原：把 A</text>
<text x="600" y="337" text-anchor="middle" font-size="20" font-weight="650" fill="#0f172a">PI 调用还原...</text>
<path d="M 692 309 H 702" stroke="#7c3aed" stroke-width="3" stroke-linecap="round"/>
<path d="M 702 309 l -9 -7 v 14 z" fill="#7c3aed"/>
<rect x="713" y="250" width="170" height="118" rx="14" fill="#ffffff" stroke="#ea580c" stroke-width="2"/>
<circle cx="741" cy="278" r="16" fill="#ffedd5" stroke="#ea580c" stroke-width="2"/>
<text x="741" y="285" text-anchor="middle" font-size="18" font-weight="700" fill="#ea580c">4</text>
<text x="798" y="312" text-anchor="middle" font-size="20" font-weight="650" fill="#0f172a">行动顺序：先用最</text>
<text x="798" y="337" text-anchor="middle" font-size="20" font-weight="650" fill="#0f172a">小样例复现，再...</text>
<path d="M 890 309 H 900" stroke="#7c3aed" stroke-width="3" stroke-linecap="round"/>
<path d="M 900 309 l -9 -7 v 14 z" fill="#7c3aed"/>
<rect x="911" y="250" width="170" height="118" rx="14" fill="#ffffff" stroke="#ea580c" stroke-width="2"/>
<circle cx="939" cy="278" r="16" fill="#ffedd5" stroke="#ea580c" stroke-width="2"/>
<text x="939" y="285" text-anchor="middle" font-size="18" font-weight="700" fill="#ea580c">5</text>
<text x="996" y="312" text-anchor="middle" font-size="20" font-weight="650" fill="#0f172a">主要风险：只看 </text>
<text x="996" y="337" text-anchor="middle" font-size="20" font-weight="650" fill="#0f172a">API 是否跑...</text>
  <text x="92" y="454" font-size="22" font-weight="700" fill="#0f172a">关键词抓手</text>
  <rect x="328" y="484" width="124" height="36" rx="18" fill="#ffffff" stroke="#7c3aed" stroke-width="1.5"/>
<text x="390" y="508" text-anchor="middle" font-size="15" font-weight="600" fill="#334155">RDD</text>
<rect x="468" y="484" width="124" height="36" rx="18" fill="#ffffff" stroke="#7c3aed" stroke-width="1.5"/>
<text x="530" y="508" text-anchor="middle" font-size="15" font-weight="600" fill="#334155">DataFr...</text>
<rect x="608" y="484" width="124" height="36" rx="18" fill="#ffffff" stroke="#7c3aed" stroke-width="1.5"/>
<text x="670" y="508" text-anchor="middle" font-size="15" font-weight="600" fill="#334155">Spark</text>
<rect x="748" y="484" width="124" height="36" rx="18" fill="#ffffff" stroke="#7c3aed" stroke-width="1.5"/>
<text x="810" y="508" text-anchor="middle" font-size="15" font-weight="600" fill="#334155">SQL</text>
<rect x="328" y="532" width="124" height="36" rx="18" fill="#ffffff" stroke="#7c3aed" stroke-width="1.5"/>
<text x="390" y="556" text-anchor="middle" font-size="15" font-weight="600" fill="#334155">Spark</text>
<rect x="468" y="532" width="124" height="36" rx="18" fill="#ffffff" stroke="#7c3aed" stroke-width="1.5"/>
<text x="530" y="556" text-anchor="middle" font-size="15" font-weight="600" fill="#334155">UI</text>
<rect x="608" y="532" width="124" height="36" rx="18" fill="#ffffff" stroke="#7c3aed" stroke-width="1.5"/>
<text x="670" y="556" text-anchor="middle" font-size="15" font-weight="600" fill="#334155">Shuffle</text>
<rect x="748" y="532" width="124" height="36" rx="18" fill="#ffffff" stroke="#7c3aed" stroke-width="1.5"/>
<text x="810" y="556" text-anchor="middle" font-size="15" font-weight="600" fill="#334155">Hive</text>
  <text x="92" y="596" font-size="22" font-weight="700" fill="#0f172a">复习闭环</text>
  <rect x="116" y="620" width="214" height="58" rx="12" fill="#ffedd5" stroke="#ea580c" stroke-width="1.5"/>
<text x="223" y="656" text-anchor="middle" font-size="20" font-weight="700" fill="#0f172a">输入数据</text>
<rect x="366" y="620" width="214" height="58" rx="12" fill="#ffedd5" stroke="#ea580c" stroke-width="1.5"/>
<text x="473" y="656" text-anchor="middle" font-size="20" font-weight="700" fill="#0f172a">计算模型</text>
<rect x="616" y="620" width="214" height="58" rx="12" fill="#ffedd5" stroke="#ea580c" stroke-width="1.5"/>
<text x="723" y="656" text-anchor="middle" font-size="20" font-weight="700" fill="#0f172a">调度执行</text>
<rect x="866" y="620" width="214" height="58" rx="12" fill="#ffedd5" stroke="#ea580c" stroke-width="1.5"/>
<text x="973" y="656" text-anchor="middle" font-size="20" font-weight="700" fill="#0f172a">性能反馈</text>
</svg>
